HIERARCHY
ROOT Hips
{
  OFFSET 7.06542 74.6625 429.16
  CHANNELS 6 Xposition Yposition Zposition Zrotation Xrotation Yrotation
  JOINT Spine
  {
    OFFSET 0 4.73261 7.09891
    CHANNELS 3 Zrotation Xrotation Yrotation
    JOINT Spine1
    {
      OFFSET 0 0 9.46522
      CHANNELS 3 Zrotation Xrotation Yrotation
      JOINT Spine2
      {
        OFFSET 0 0 9.46522
        CHANNELS 3 Zrotation Xrotation Yrotation
        JOINT Spine3
        {
          OFFSET 0 0 9.46522
          CHANNELS 3 Zrotation Xrotation Yrotation
          JOINT Neck
          {
            OFFSET 0 -3.54946 24.8462
            CHANNELS 3 Zrotation Xrotation Yrotation
            JOINT Head
            {
              OFFSET 0 0 13.0147
              CHANNELS 3 Zrotation Xrotation Yrotation
              End Site
              {
                OFFSET 0 0 15.3218
              }
            }
          }
          JOINT RightShoulder
          {
            OFFSET -3.19949 -5.33248 17.2772
            CHANNELS 3 Zrotation Xrotation Yrotation
            JOINT RightArm
            {
              OFFSET 15.8908 0 0
              CHANNELS 3 Zrotation Xrotation Yrotation
              JOINT RightForeArm
              {
                OFFSET 29.5436 0 0
                CHANNELS 3 Zrotation Xrotation Yrotation
                JOINT RightHand
                {
                  OFFSET 23.2652 0 0
                  CHANNELS 3 Zrotation Xrotation Yrotation
                  JOINT RightHandEnd
                  {
                    OFFSET 6.96115 0 0
                    CHANNELS 3 Zrotation Xrotation Yrotation
                    End Site
                    {
                      OFFSET 6.96115 0 0
                    }
                  }
                  JOINT RightHandThumb1
                  {
                    OFFSET 2.78446 -4.64077 1.85631
                    CHANNELS 3 Zrotation Xrotation Yrotation
                    JOINT RightHandThumb2
                    {
                      OFFSET 6.96115 0 0
                      CHANNELS 3 Zrotation Xrotation Yrotation
                      End Site
                      {
                        OFFSET 0 0 0
                      }
                    }
                  }
                }
              }
            }
          }
          JOINT LeftShoulder
          {
            OFFSET 3.19949 -5.33248 17.2772
            CHANNELS 3 Zrotation Xrotation Yrotation
            JOINT LeftArm
            {
              OFFSET 15.8908 0 0
              CHANNELS 3 Zrotation Xrotation Yrotation
              JOINT LeftForeArm
              {
                OFFSET 29.5436 0 0
                CHANNELS 3 Zrotation Xrotation Yrotation
                JOINT LeftHand
                {
                  OFFSET 23.2652 0 0
                  CHANNELS 3 Zrotation Xrotation Yrotation
                  JOINT LeftHandEnd
                  {
                    OFFSET 6.96115 0 0
                    CHANNELS 3 Zrotation Xrotation Yrotation
                    End Site
                    {
                      OFFSET 6.96115 0 0
                    }
                  }
                  JOINT LeftHandThumb1
                  {
                    OFFSET 2.78446 -4.64077 -1.85631
                    CHANNELS 3 Zrotation Xrotation Yrotation
                    JOINT LeftHandThumb2
                    {
                      OFFSET 6.96115 0 0
                      CHANNELS 3 Zrotation Xrotation Yrotation
                      End Site
                      {
                        OFFSET 0 0 0
                      }
                    }
                  }
                }
              }
            }
          }
        }
      }
    }
  }
  JOINT RightUpLeg
  {
    OFFSET -9.49182 0 -2.77289
    CHANNELS 3 Zrotation Xrotation Yrotation
    JOINT RightLeg
    {
      OFFSET 41.2118 0 0
      CHANNELS 3 Zrotation Xrotation Yrotation
      JOINT RightFoot
      {
        OFFSET 45.6091 0 0
        CHANNELS 3 Zrotation Xrotation Yrotation
        JOINT RightToeBase
        {
          OFFSET 17.0969 0 0
          CHANNELS 3 Zrotation Xrotation Yrotation
          End Site
          {
            OFFSET 7.67878 0 0
          }
        }
      }
    }
  }
  JOINT LeftUpLeg
  {
    OFFSET 9.49182 0 -2.77289
    CHANNELS 3 Zrotation Xrotation Yrotation
    JOINT LeftLeg
    {
      OFFSET 41.2118 0 0
      CHANNELS 3 Zrotation Xrotation Yrotation
      JOINT LeftFoot
      {
        OFFSET 45.6091 0 0
        CHANNELS 3 Zrotation Xrotation Yrotation
        JOINT LeftToeBase
        {
          OFFSET 17.0969 0 0
          CHANNELS 3 Zrotation Xrotation Yrotation
          End Site
          {
            OFFSET 7.67878 0 0
          }
        }
      }
    }
  }
}
MOTION
Frames:	14
Frame Time:	0.00833333
14.3256 77.6972 337.158 -179.903 -8.08406 -177.199 -0.600556 -17.9324 3.70947 0.652245 10.5467 10.8931 -30.5579 -40.2482 -48.9557 0.211911 5.8018 -2.0347 12.0484 -11.7728 24.1783 -164.239 -61.2785 -161.104 3.44326 -20.6938 -150.514 -92.2485 55.4431 117.294 -34.6938 3.02471e-12 -1.34219e-12 -29.6157 41.2155 95.1124 5.97139e-09 -90 5.97139e-09 165 10 -180 -2.16438e-10 -2.24965e-09 -4.57146e-10 0.960177 -11.7932 -17.481 -40.7876 -40.469 -73.5361 -4.19908 -2.57625e-12 3.95025e-12 -23.1298 -46.7755 -104.117 -1.19428e-08 90 1.19428e-08 165 10 -180 2.27187e-11 -3.00876e-10 1.42355e-10 -6.83252 23.1032 125.49 70.4881 0.0409189 -4.94576e-13 -70.7719 3.9886 -13.4462 -23.3591 -8.96996e-12 8.29775e-11 17.1786 29.8064 56.9075 59.8859 -0.0154089 5.39899e-13 -81.8069 -1.05615 11.5036 -22.3526 -2.08271e-10 -5.37371e-11 
14.3019 77.5959 337.48 -179.837 -8.02224 -177.368 -0.600222 -17.8511 3.80435 0.649656 10.8007 11.0449 -31.4412 -40.3723 -49.6923 0.186758 5.81543 -2.05455 11.9418 -11.8315 24.1356 -164.129 -61.318 -161.704 3.01112 -21.1039 -150.578 -90.9108 55.0962 115.887 -33.6891 3.29187e-12 -5.4467e-13 -26.7066 44.7787 95.7528 8.95708e-08 -90 8.95708e-08 165 10 -180 -1.77995e-10 -1.76357e-09 -3.87463e-10 0.573724 -11.5922 -17.9194 -40.2058 -40.5302 -72.9161 -4.26265 -1.40167e-11 1.41748e-10 -22.9979 -46.0448 -104.036 -1.19428e-08 90 1.19428e-08 165 10 -180 -1.57437e-13 -1.64133e-10 2.45914e-10 -7.04276 22.7372 125.286 68.8685 0.042957 0.000104125 -70.6512 4.2432 -14.0713 -23.2814 3.86294e-11 8.99588e-11 17.0307 29.9328 57.0825 60.2728 -0.0159941 -1.23998e-06 -82.0957 -1.15587 11.4969 -22.3497 -2.86797e-10 -6.71813e-11 
14.2383 77.4762 337.799 -179.736 -7.97242 -177.544 -0.599682 -17.7561 3.91184 0.645688 11.1132 11.2178 -32.4584 -40.5434 -50.564 0.159228 5.83622 -2.06979 11.813 -11.8913 24.0723 -163.996 -61.3709 -162.365 2.42473 -21.484 -150.72 -88.5331 54.9872 113.445 -32.9685 3.27597e-12 4.26989e-13 -21.6856 49.5709 95.9392 4.17997e-08 -90 4.17997e-08 165 10 -180 -8.43571e-11 -7.46562e-10 -2.17903e-10 0.188363 -11.442 -18.3581 -39.536 -40.491 -72.1934 -4.29863 -3.07878e-11 3.44683e-10 -22.9278 -45.3071 -104.041 -2.38856e-08 90 2.38856e-08 165 10 -180 -3.7715e-11 6.35769e-11 3.67879e-10 -7.24801 22.3763 125.046 67.2249 0.0432287 9.9266e-05 -70.6151 4.34818 -14.4583 -23.2105 1.22484e-10 8.18516e-11 16.8929 30.0143 57.2568 60.6919 -0.0167247 1.68415e-06 -82.3756 -1.2661 11.5099 -22.3778 -3.55909e-10 -8.06954e-11 
14.142 77.3259 338.11 -179.588 -7.93641 -177.72 -0.602129 -17.6617 4.03436 0.643528 11.4056 11.4209 -33.5246 -40.6274 -51.516 0.140291 5.84857 -2.08056 11.6396 -11.9387 23.9495 -163.888 -61.3623 -163.121 1.73236 -21.7029 -151.129 -86.1458 54.6894 110.842 -32.3407 2.9929e-12 1.40262e-12 -16.1224 54.1104 95.8236 -2.38856e-08 -90 -2.38856e-08 165 10 -180 2.95362e-11 2.99579e-10 -3.63521e-11 -0.195444 -11.2997 -18.8085 -38.8351 -40.4559 -71.464 -4.37526 -4.61562e-11 5.285e-10 -22.8367 -44.5476 -104.045 -2.38856e-08 90 2.38856e-08 165 10 -180 -7.32816e-11 2.80593e-10 4.64832e-10 -7.42724 22.0174 124.779 65.6048 0.0426152 3.21114e-05 -70.6271 4.40885 -14.647 -23.1554 2.09212e-10 6.70397e-11 16.7951 30.0626 57.411 61.1268 -0.0176609 3.62159e-06 -82.6557 -1.38841 11.5585 -22.416 -4.04812e-10 -8.83447e-11 
14.017 77.1605 338.429 -179.378 -7.91609 -177.888 -0.610701 -17.5819 4.17439 0.646849 11.5988 11.663 -34.5446 -40.4939 -52.4827 0.140911 5.83684 -2.087 11.3989 -11.9599 23.7287 -163.844 -61.2169 -163.999 0.985783 -21.6254 -151.988 -84.8409 53.8622 109.012 -31.6145 2.48083e-12 2.16119e-12 -12.3434 56.9809 96.4845 -5.37425e-08 -90 -5.37425e-08 165 10 -180 1.28747e-10 8.7304e-10 6.93043e-11 -0.576385 -11.1226 -19.2813 -38.1542 -40.5325 -70.8183 -4.5608 -5.35764e-11 6.08911e-10 -22.6467 -43.7515 -103.967 -3.58283e-08 90 3.58283e-08 165 10 -180 -9.02021e-11 3.85287e-10 4.93377e-10 -7.55941 21.6571 124.495 64.0556 0.0419927 -8.78628e-13 -70.6487 4.5296 -14.6776 -23.1252 2.65474e-10 5.40981e-11 16.767 30.0896 57.5261 61.5611 -0.0188635 -2.14687e-14 -82.9449 -1.52449 11.6585 -22.4433 -4.2274e-10 -8.414e-11 
13.8737 76.9755 338.754 -179.092 -7.90647 -178.053 -0.627092 -17.524 4.34971 0.659934 11.6513 11.9778 -35.5451 -40.0261 -53.5018 0.165995 5.79463 -2.07783 11.04 -11.9241 23.3337 -163.938 -60.8555 -165.156 0.0448006 -21.0818 -153.59 -85.0674 52.3049 108.205 -30.6847 1.46942e-12 3.52167e-12 -11.976 57.6469 99.5066 1.79142e-08 -90 1.79142e-08 165 10 -180 2.27992e-10 1.16753e-09 7.90972e-11 -0.966585 -10.8625 -19.7817 -37.551 -40.8094 -70.3635 -4.95616 -4.82681e-11 5.30243e-10 -22.266 -42.8161 -103.752 3.58283e-08 90 -3.58283e-08 165 10 -180 -7.84468e-11 3.02488e-10 4.20619e-10 -7.63656 21.2965 124.195 62.5602 0.0413643 2.54276e-05 -70.682 4.75078 -14.474 -23.132 2.83452e-10 4.39203e-11 16.832 30.0922 57.5934 61.9927 -0.0202275 2.93421e-07 -83.2374 -1.64772 11.8284 -22.461 -3.97448e-10 -6.07311e-11 
13.6929 76.7746 339.094 -178.74 -7.90885 -178.217 -0.649325 -17.4791 4.55331 0.680615 11.6122 12.3501 -36.5369 -39.3189 -54.5675 0.209048 5.73103 -2.05671 10.5907 -11.845 22.8077 -164.106 -60.336 -166.507 -1.03183 -20.1616 -155.728 -86.1368 50.2667 107.856 -29.6712 6.36111e-15 5.34015e-12 -13.6045 56.8601 104.153 -5.97139e-09 -90 -5.97139e-09 165 10 -180 3.37893e-10 1.34149e-09 3.87439e-11 -1.36131 -10.554 -20.3024 -36.9784 -41.212 -70.0184 -5.49737 -3.32304e-11 3.48643e-10 -21.7702 -41.7807 -103.465 1.19428e-08 90 -1.19428e-08 165 10 -180 -4.87627e-11 1.02442e-10 2.7681e-10 -7.67136 20.9363 123.876 61.1025 0.0403393 3.19364e-05 -70.7456 5.01225 -14.0432 -23.1677 2.80595e-10 3.24448e-11 16.9694 30.0664 57.6243 62.4296 -0.0217609 7.44425e-06 -83.5309 -1.76694 12.0551 -22.4778 -3.37813e-10 -2.31974e-11 
13.5115 76.5625 339.44 -178.349 -7.9343 -178.367 -0.67497 -17.4382 4.75051 0.703026 11.5384 12.7148 -37.4092 -38.5662 -55.5572 0.263903 5.65362 -2.0462 10.1458 -11.7766 22.2907 -164.197 -59.7903 -167.734 -1.9117 -19.1417 -157.856 -87.4476 48.1256 107.692 -28.7208 -1.2595e-12 5.87926e-12 -15.5212 55.2813 108.635 -3.73211e-09 -90 -3.73212e-09 165 10 -180 4.17364e-10 8.40265e-10 -4.11115e-11 -1.73462 -10.2788 -20.8355 -36.3285 -41.6014 -69.5877 -6.00539 -1.45288e-11 1.47447e-10 -21.3255 -40.8446 -103.199 0 90 -0 165 10 -180 -1.56579e-11 -9.84533e-11 1.13269e-10 -7.67363 20.5721 123.539 59.7323 0.0391988 1.84678e-05 -70.8237 5.26751 -13.5505 -23.2111 2.6141e-10 2.07722e-11 17.142 30.0225 57.6293 62.8707 -0.0236941 9.98367e-06 -83.8392 -1.93712 12.3062 -22.4847 -2.64764e-10 1.58662e-11 
13.3002 76.3443 339.808 -177.945 -7.99357 -178.492 -0.701604 -17.392 4.90662 0.720485 11.4866 13.007 -38.0705 -37.9679 -56.3675 0.324327 5.56994 -2.06888 9.79844 -11.7767 21.9212 -164.089 -59.354 -168.543 -2.30922 -18.3354 -159.46 -88.4769 46.2585 107.536 -27.9805 -1.80974e-12 3.41751e-12 -16.4271 53.7309 111.532 4.48612e-08 -90 4.48612e-08 165 10 -180 4.25331e-10 -8.90841e-10 -1.49826e-10 -2.06245 -10.1187 -21.375 -35.4942 -41.8342 -68.8786 -6.30116 -7.25166e-13 9.82473e-12 -21.0849 -40.2092 -103.03 -3.18055e-15 90 -0 165 10 -180 6.35952e-12 -1.83782e-10 -1.86826e-11 -7.65319 20.1998 123.186 58.4998 0.0382239 -4.11286e-13 -70.8986 5.47065 -13.1618 -23.2408 2.30417e-10 1.00028e-11 17.3129 29.9707 57.6191 63.3152 -0.0262576 -3.7292e-13 -84.1756 -2.21305 12.5489 -22.4726 -1.99217e-10 4.38551e-11 
13.088 76.1221 340.206 -177.498 -8.09514 -178.593 -0.729603 -17.3462 5.02118 0.733306 11.4261 13.2209 -38.5009 -37.4843 -56.9839 0.389312 5.46654 -2.14881 9.56346 -11.8554 21.7453 -163.617 -59.0208 -168.755 -2.04859 -17.8229 -160.444 -89.1907 44.7341 107.431 -27.5998 -1.16408e-12 -4.33828e-12 -16.1748 52.2985 112.523 2.42588e-08 -90 2.42588e-08 165 10 -180 3.13223e-10 -4.823e-09 -3.19045e-10 -2.36507 -10.1379 -21.9161 -34.5236 -41.875 -67.9192 -6.36854 4.09655e-12 -3.768e-11 -21.0779 -39.79 -102.942 5.97139e-08 90 -5.97139e-08 165 10 -180 5.08094e-12 -7.49148e-11 -1.13123e-10 -7.58196 19.7966 122.829 57.4116 0.0373575 -1.94439e-06 -70.9563 5.60123 -12.8988 -23.2469 1.77818e-10 -9.28722e-13 17.5056 29.9071 57.5994 63.7591 -0.0297135 -1.18957e-05 -84.5425 -2.64775 12.7725 -22.4222 -1.3814e-10 5.86303e-11 
12.8609 75.9034 340.638 -177.007 -8.23123 -178.674 -0.759851 -17.303 5.10977 0.74442 11.3416 13.3874 -38.7593 -37.0471 -57.4692 0.461753 5.34442 -2.26783 9.39393 -11.9859 21.6855 -162.913 -58.7321 -168.579 -1.33861 -17.4632 -161.088 -89.8323 43.3576 107.449 -27.4634 2.41722e-13 -1.58392e-11 -15.4977 50.6168 112.449 1.86607e-09 -90 1.86606e-09 165 10 -180 1.15495e-10 -1.0386e-08 -5.4295e-10 -2.64966 -10.279 -22.4655 -33.4559 -41.7909 -66.7942 -6.29249 4.18879e-12 -4.09337e-11 -21.2187 -39.5265 -102.899 1.19428e-08 90 -1.19428e-08 165 10 -180 -8.97553e-12 1.50219e-10 -1.94838e-10 -7.46573 19.3714 122.464 56.4428 0.0364929 5.05944e-06 -71.0085 5.68665 -12.6809 -23.2422 1.04871e-10 -1.21497e-11 17.7285 29.8285 57.564 64.2043 -0.0338723 -1.1778e-05 -84.9323 -3.19947 12.9931 -22.3439 -7.32301e-11 6.63973e-11 
12.6205 75.6731 341.087 -176.54 -8.38767 -178.727 -0.790703 -17.2477 5.16183 0.750085 11.3139 13.4963 -38.887 -36.8141 -57.8487 0.541412 5.23286 -2.38529 9.29004 -12.1722 21.6941 -162.294 -58.5464 -168.306 -0.49622 -17.2421 -161.459 -90.3523 42.112 107.518 -27.3214 1.63799e-12 -2.71985e-11 -14.7284 48.8991 111.921 -2.01534e-08 -90 -2.01534e-08 165 10 -180 -8.44262e-11 -1.58223e-08 -7.54701e-10 -2.87224 -10.443 -23.034 -32.1774 -41.5818 -65.401 -6.04564 2.3886e-12 -2.56353e-11 -21.4833 -39.6569 -102.938 3.58283e-08 90 -3.58283e-08 165 10 -180 -1.62367e-11 3.73141e-10 -2.58557e-10 -7.36465 18.9674 122.072 55.5969 0.0358371 8.20836e-06 -71.0744 5.75313 -12.5201 -23.2394 3.26396e-11 -2.11634e-11 17.922 29.7457 57.5045 64.6581 -0.0382868 -4.30545e-06 -85.3432 -3.78067 13.2181 -22.2734 -1.75312e-11 6.72751e-11 
12.3869 75.45 341.565 -176.163 -8.55007 -178.745 -0.8205 -17.1656 5.16678 0.746331 11.4233 13.5375 -38.9257 -36.9417 -58.1472 0.628322 5.16122 -2.46062 9.25193 -12.4177 21.7234 -162.069 -58.5263 -168.218 0.165575 -17.14 -161.618 -90.7062 40.9828 107.574 -26.9237 2.18504e-12 -3.44565e-11 -14.1215 47.3673 111.473 -1.97802e-08 -90 -1.97802e-08 165 10 -180 -2.03097e-10 -1.93744e-08 -8.87456e-10 -2.98677 -10.5322 -23.6308 -30.5778 -41.2379 -63.6407 -5.60054 1.47578e-12 -1.74581e-11 -21.8539 -40.4187 -103.105 -2.38856e-08 90 2.38856e-08 165 10 -180 2.87363e-12 4.75394e-10 -2.99007e-10 -7.3382 18.6285 121.63 54.878 0.0355976 1.34875e-12 -71.1736 5.82687 -12.4283 -23.2515 -1.7823e-11 -2.5524e-11 18.0265 29.6699 57.4127 65.1276 -0.04251 8.07861e-13 -85.7741 -4.30391 13.4559 -22.246 1.5925e-11 6.1442e-11 
12.1424 75.2275 342.064 -175.881 -8.7283 -178.709 -0.852058 -17.0368 5.11714 0.730018 11.7453 13.5082 -38.9269 -37.5634 -58.4666 0.731723 5.14512 -2.47915 9.30869 -12.7303 21.8275 -162.38 -58.7393 -168.371 0.582971 -17.168 -161.503 -90.916 39.9586 107.644 -26.1417 1.92106e-12 -3.74971e-11 -13.6871 46.058 111.106 2.53784e-08 -90 2.53784e-08 165 10 -180 -2.00573e-10 -2.06526e-08 -9.2345e-10 -2.94245 -10.522 -24.2914 -28.4213 -40.6344 -61.283 -4.83079 1.87335e-12 -2.08644e-11 -22.5289 -42.1017 -103.637 -1.19428e-08 90 1.19428e-08 165 10 -180 7.02871e-11 3.96634e-10 -3.16821e-10 -7.3806 18.3435 121.109 54.3004 0.0358065 -9.85063e-06 -71.3264 5.89764 -12.4198 -23.282 -4.12741e-11 -2.34693e-11 18.0391 29.5847 57.2744 65.6238 -0.0465399 -5.25931e-06 -86.2288 -4.75633 13.7247 -22.286 1.48738e-11 4.47886e-11 
